<svg xmlns="http://www.w3.org/2000/svg" viewBox="359.85 359.86 1080 1080" fill="currentColor">
  <rect x="388" y="386.71" width="359.86" height="359.86" rx="16.22" ry="16.22"/>
  <path d="M1435.1,1169.16l-261.66-261.66c-4.22-4.22-4.22-11.07,0-15.29l261.66-261.66c6.33-6.33,6.33-16.61,0-22.94l-243-243c-6.33-6.33-16.61-6.33-22.94,0l-804.56,804.56c-6.33,6.33-6.33,16.61,0,22.94l243,243c6.33,6.33,16.61,6.33,22.94,0l261.66-261.66c4.22-4.22,11.07-4.22,15.29,0l261.66,261.66c6.33,6.33,16.61,6.33,22.94,0l243-243c6.33-6.33,6.33-16.61,0-22.94Z"/>
</svg>
